<?xml version="1.0" encoding="UTF-8" standalone="no"?>
<svg id="svg4178" xmlns:rdf="http://www.w3.org/1999/02/22-rdf-syntax-ns#" xmlns="http://www.w3.org/2000/svg" height="650.59" viewBox="0 0 829.94745 650.59467" width="829.95" version="1.1" xmlns:cc="http://creativecommons.org/ns#" xmlns:dc="http://purl.org/dc/elements/1.1/">
<path id="path4194" d="m108.6 647.59c-0.27126-1.419 0.0558-2.651 0.77724-2.9279 1.7448-0.66955 7.4579-13.137 7.4579-16.275 0-0.85722 1.1251-2.8957 2.5003-4.53s2.7602-4.1742 3.0778-5.6444c0.31763-1.4701 0.94605-3.5729 1.3965-4.6729s1.8134-4.475 3.0287-7.5c1.2154-3.025 3.0133-6.85 3.9953-8.5 0.98207-1.65 2.0949-4.4625 2.4729-6.25 0.37803-1.7875 1.0401-3.25 1.4713-3.25 0.89494 0 6.0571-11.094 6.0571-13.017 0-0.69682 3.15-7.7581 7-15.692 3.85-7.9336 7-15.129 7-15.99 0-0.8609 0.8446-2.9684 1.8769-4.6833s2.6417-5.4752 3.5765-8.3563c0.93477-2.881 2.1152-5.4951 2.6231-5.809 0.50795-0.31393 0.92354-1.6085 0.92354-2.8769s0.83456-3.3793 1.8546-4.691 2.4028-4.0661 3.073-6.1209c0.67011-2.0548 1.6367-3.9946 2.1481-4.3106 0.51132-0.31601 1.8517-2.6848 2.9786-5.2639 1.1269-2.5792 2.8853-6.2644 3.9075-8.1894 1.0223-1.925 3.5233-7.775 5.558-13 2.0346-5.225 5.0519-12.425 6.705-16 3.0451-6.5852 3.3831-7.3578 6.3439-14.5 7.877-19.001 7.6-16.529 7.9193-70.672 0.15174-25.727 0.53896-35.479 1.501-37.802 1.095-2.6435 1.0426-4.0158-0.33717-8.8284-1.1246-3.9226-1.7488-10.927-2.0033-22.476-0.42873-19.462-1.4493-22.329-4.5289-12.723-0.61712 1.925-2.0862 5.075-3.2646 7-3.2595 5.3247-10.855 20.282-10.855 21.376 0 0.53177-0.67168 1.7091-1.4926 2.6162-0.82095 0.90713-3.6765 5.8999-6.3456 11.095-2.6692 5.1952-5.3556 10.338-5.9698 11.429-0.61425 1.091-2.2988 4.6836-3.7434 7.9836s-3.3031 6.7564-4.13 7.681c-1.9002 2.1245-2.8986 3.968-13.568 25.054l-8.75 17.292v10.306c0 10.791-2.5161 14.189-5.4887 7.4132-1.6025-3.6527-5.675 0.30229-10.559 10.254-1.0797 2.2-2.8366 5.35-3.9042 7-3.1252 4.8298-7.9455 13.601-8.5891 15.628-0.32671 1.0294-0.97879 1.8716-1.4491 1.8716-0.47028 0-1.3748 1.575-2.0102 3.5-0.63531 1.925-1.5798 3.5-2.099 3.5-0.51914 0-1.4712 1.2375-2.1158 2.75-0.64456 1.5125-1.8325 3.5406-2.6398 4.5069-1.645 1.9689-2.2632 2.9816-6.9301 11.352-1.8066 3.2402-4.3782 7.6912-5.7148 9.8912-1.3365 2.2-3.1318 5.575-3.9895 7.5-0.85772 1.925-1.9919 4.175-2.5203 5-0.52846 0.825-1.6397 2.85-2.4694 4.5-0.82969 1.65-2.6442 4.8-4.0322 7s-2.9455 4.988-3.461 6.1956c-0.51551 1.2076-2.5327 4.4655-4.4827 7.2397-1.95 2.7743-3.5454 5.5646-3.5454 6.2009 0 1.1006-5.124 9.5108-9.056 14.864-1.01 1.375-3.1891 5.2396-4.8424 8.5879s-3.7025 6.6659-4.5538 7.3724c-0.85129 0.70651-1.5478 1.7724-1.5478 2.3687 0 0.59626-1.8 3.6502-4 6.7865s-4 6.1985-4 6.8048-1.7447 3.6848-3.8772 6.841c-2.1324 3.1563-5.5527 8.8887-7.6006 12.739-2.0479 3.85-4.2787 7.675-4.9574 8.5-0.67868 0.825-2.2541 3.525-3.5008 6-1.2468 2.475-3.1212 5.305-4.1654 6.289-1.0442 0.98392-1.8985 2.8267-1.8985 4.095 0 3.0937-2.9403 5.5698-7.4908 6.3082-3.5796 0.58089-3.7082 0.50453-3.0202-1.7927 0.90983-3.0377 5.2256-10.605 6.4961-11.39 0.52876-0.32679 1.6997-2.15 2.6021-4.0517 0.90238-1.9016 2.0394-3.4575 2.5268-3.4575 0.48733 0 0.88606-0.61431 0.88606-1.3651 0-0.75083 0.8421-2.4383 1.8713-3.75s4.4739-7.1099 7.6548-12.885c3.1809-5.775 6.3888-10.86 7.1287-11.3 0.73984-0.43983 1.3452-1.5278 1.3452-2.4178 0-2.6018 11.547-23.251 14.138-25.282 0.35069-0.275 1.3541-2.075 2.2299-4 0.87576-1.925 2.0342-4.175 2.5744-5 0.54017-0.825 2.1258-3.975 3.5236-7s4.5541-8.65 7.0139-12.5 5.2106-8.575 6.1128-10.5c0.90217-1.925 2.9692-5.1791 4.5934-7.2314 3.8481-4.8623 7.8144-12.367 7.8144-14.786 0-1.0516 0.9-2.3936 2-2.9823s2-1.928 2-2.9762 0.39775-2.1516 0.88388-2.4521c0.48613-0.30045 1.8447-2.4645 3.019-4.809s3.2498-6.0628 4.6122-8.2628 4.0481-7.15 5.9683-11c1.9201-3.85 5.283-10.15 7.473-14s4.8241-8.575 5.8535-10.5c7.099-13.275 12.159-22.062 13.876-24.097 1.4826-1.7574 19.314-36.945 19.314-38.113 0-0.40013 2.25-4.1742 5-8.3867 2.75-4.2126 5-8.2132 5-8.8902 0-0.67701 1.4165-3.8818 3.1478-7.1217 7.8675-14.723 13.842-27.028 13.847-28.518 0.003-0.89515 0.68036-2.1878 1.5054-2.8724 0.825-0.68469 1.5-1.6677 1.5-2.1844 0-1.0096 4.5202-11.338 6.0462-13.816 0.50819-0.825 3.4272-6.675 6.4867-13s5.9941-12.175 6.5213-13c0.52723-0.825 1.2511-2.175 1.6086-3 0.35749-0.825 2.4478-4.6203 4.6452-8.434l3.9952-6.934-0.75415-19.066c-0.41479-10.486-0.93732-24.241-1.1612-30.566-0.22387-6.325-0.83172-16.45-1.3508-22.5-3.3083-38.56-2.783-38.864 29.808-17.25 11.682 7.7478 15.104 6.9658 18.599-4.2503 3.6462-11.703 5.7193-12.301 19.178-5.54 8.3903 4.2151 23.628 9.9824 29.596 11.202 1.4948 0.30549 3.2374 1.1815 3.8724 1.9467 0.63503 0.76517 1.7802 1.3912 2.5449 1.3912 0.76467 0 5.419 1.9723 10.343 4.3829s10.093 4.6692 11.487 5.019c1.394 0.34988 2.5346 1.0418 2.5346 1.5376 0 0.49582 1.4561 1.2213 3.2357 1.6122 1.7796 0.39088 3.7961 1.4391 4.481 2.3295 5.9219 7.698 6.7874-35.605 0.92702-46.381-2.5677-4.7218-1.3074-8.9175 1.9997-6.6575 4.4662 3.0521 9.9758 22.967 8.9246 32.259-0.81473 7.2012 0.0913 7.7593 4.7703 2.9382 2.0492-2.1114 4.9489-4.1454 6.4437-4.5201 9.0856-2.2769 16.218-9.0262 16.218-15.347 0-2.1773 0.67421-7.2694 1.4982-11.316 0.82403-4.0463 1.6272-13.044 1.7848-19.995 0.34983-15.431 1.556-17.759 7.5645-14.597 3.4216 1.8004 6.0994 9.524 9.7027 27.985 1.9897 10.194 3.0514 10.999 3.9567 3 0.35792-3.1625 1.0411-7.1 1.5182-8.75 0.47709-1.65 1.1755-5.25 1.5521-8 0.37658-2.75 1.2611-6.575 1.9655-8.5 0.70446-1.925 1.5482-5.0321 1.875-6.9047 1.8836-10.793 12.732-7.23 14.753 4.8452 1.484 8.8691 3.9501 20.624 5.3807 25.647 0.79692 2.7983 1.4489 6.4546 1.4489 8.125 0 11.861 0.41581 11.759 16.228-3.9629 15.954-15.864 37.541-36.137 43.772-41.109 2.475-1.9749 6.3-5.1846 8.5-7.1328 2.2-1.9481 5.8-4.8914 8-6.5406 6.6039-4.9505 8.4815-6.4062 9.9536-7.7173 0.77194-0.6875 1.9049-1.25 2.5178-1.25 0.61285 0 3.2792-2.025 5.9251-4.5 2.646-2.475 5.1174-4.5 5.4921-4.5s4.3598-2.7 8.8557-6 8.9536-6 9.906-6c0.95237 0 2.0381-0.49592 2.4127-1.102 0.3746-0.60612 2.2012-1.7372 4.059-2.5134 1.8578-0.77626 3.3779-1.8196 3.3779-2.3185 0-0.49892 1.3804-1.2103 3.0676-1.5809 1.6872-0.37056 3.3037-1.2892 3.5924-2.0414 0.28865-0.7522 1.3806-1.6392 2.4265-1.9712 1.0459-0.33197 2.4669-1.1431 3.1576-1.8025 2.0806-1.9863 11.805-6.67 13.848-6.67 1.0492 0 1.9077-0.42544 1.9077-0.94543 0-0.99452 3.1524-2.936 9-5.5428 1.925-0.85815 4.175-1.9788 5-2.4902 3.7486-2.3241 13.798-7.0247 15.079-7.0533 0.78153-0.01749 2.2945-0.69249 3.3621-1.5s2.6493-1.4682 3.5148-1.4682c0.86552 0 3.2529-0.9 5.3052-2 2.0524-1.1 4.7457-2.003 5.9852-2.0066s3.6036-0.90066 5.2536-1.9934c1.65-1.0928 4.2598-1.9898 5.7997-1.9934 1.5398-0.0036 4.0801-0.66872 5.645-1.478 1.565-0.80927 4.8051-1.7719 7.2003-2.1391 2.3952-0.36722 5.48-1.2151 6.855-1.8841 1.375-0.66906 6.1-1.758 10.5-2.4198 4.4-0.66185 10.321-1.8524 13.158-2.6457 14.254-3.9857 30.753 0.47507 31.023 8.3876 0.0996 2.9167 0.66313 7.5506 1.2523 10.298 1.7425 8.1249 0.49216 12.42-6.0716 20.86-6.213 7.9881-6.5039 11.434-0.77373 9.1655 4.8321-1.9126 17.156-4.2231 27.659-5.1854 5.9142-0.54187 12.598-1.2466 14.853-1.566 7.3065-1.0349 34.13 3.6635 36.15 6.3319 2.722 3.5969-0.0507 16.57-4.6646 21.825-1.697 1.9327-3.0854 4.1734-3.0854 4.9793 0 0.80586-0.36875 1.4652-0.81945 1.4652-0.45069 0-4.1632 5.0517-8.25 11.226-6.8293 10.318-18.003 22.756-20.453 22.769-0.56242 0.003-1.8895 1.6149-2.9491 3.5824s-3.1869 4.229-4.7274 5.0257c-1.5405 0.79663-2.8009 1.8565-2.8009 2.3553 0 0.49882-1.0125 1.2119-2.25 1.5846-1.2375 0.37273-3.6 1.9241-5.25 3.4474s-4.125 3.3451-5.5 4.0484c-1.375 0.70328-3.088 2.1073-3.8067 3.12-0.71869 1.0127-1.9011 1.8413-2.6276 1.8413-0.72647 0-1.8498 0.63729-2.4962 1.4162-1.297 1.5628-14.357 10.584-15.322 10.584-0.33328 0-3.3159 1.8-6.6281 4s-6.4293 4-6.9269 4c-0.49764 0-2.882 1.5023-5.2986 3.3384s-5.5927 3.9736-7.0581 4.75c-1.4654 0.77637-5.5154 2.9169-9 4.7568s-7.0461 3.9774-7.9144 4.75c-0.86831 0.77261-2.2638 1.4048-3.1011 1.4048-0.83728 0-3.6382 1.125-6.2242 2.5s-5.1957 2.5-5.7993 2.5c-1.5101 0-11.709 5.0496-12.375 6.1268-0.29681 0.48025-1.3247 0.87318-2.2843 0.87318-0.95955 0-3.9705 1.09-6.691 2.4222-10.187 4.9885-27.874 11.24-39.946 14.118-10.156 2.4216-20.21 5.2714-22.151 6.2785-1.017 0.52777-5.899 1.7325-10.849 2.6771-4.95 0.94462-9.7579 2.1194-10.684 2.6107-0.92634 0.49127-4.1596 0.89322-7.1849 0.89322-3.0254 0-6.684 0.44992-8.1304 0.99982-4.3423 1.651-28.862 4.0002-41.751 4.0002-11.62 0-11.999 0.0667-10.405 1.8287 0.91025 1.0058 1.655 2.3246 1.655 2.9307 0 5.51 6.2076 9.7939 15.583 10.754 3.8043 0.3896 8.3917 1.3906 10.194 2.2245 3.4877 1.6133 36.039-2.1172 45.722-5.24 2.2-0.70946 6.475-1.8167 9.5-2.4606 3.025-0.64388 7.075-1.8198 9-2.6132 1.925-0.79339 5.525-1.8594 8-2.3688 2.475-0.50946 6.525-1.5941 9-2.4104 11.329-3.7362 15.424-4.6522 28.029-6.2691 22.62-2.9016 27.923-1.1814 26.366 8.5535-0.86989 5.44 1.3862 6.5632 10.415 5.185 30.445-4.6472 33.078-3.3689 29.64 14.386-2.3834 12.306-5.8154 45.052-4.9592 47.317 0.39399 1.0426 2.7407 1.1606 11.253 0.56618 13.48-0.94134 12.048-1.0016 23.056 0.96906 11.313 2.025 24.356 5.4382 25.649 6.7118 0.5225 0.51465 1.8112 0.93573 2.8638 0.93573s3.5501 0.88123 5.55 1.9583 5.2112 2.6613 7.1362 3.5206c8.3215 3.7145 16.839 8.8644 21.928 13.257 3.0105 2.5991 7.0683 5.8078 9.0174 7.1304 4.0422 2.7431 11.812 10.532 17.267 17.311 3.863 4.8 3.2474 4.5167 20.376 9.3784 2.7983 0.79426 6.1733 1.451 7.5 1.4594 6.3446 0.0403 6.7894 6.2118 0.68345 9.4812l-3.7287 1.9965-10.771-2.74c-19.941-5.0724-25.748-5.4636-35.584-2.397-5.5975 1.7452-10.744 2.644-15.141 2.644-3.6634 0-8.5476 0.44962-10.854 0.99915-4.0368 0.96198-30.49 3.1576-37.693 3.1285-8.3116-0.0336-26.108-1.9847-33.299-3.6508-10.804-2.5032-10.456-3.1035-11.053 19.023-0.26747 9.9-0.95052 20.475-1.5179 23.5-3.1645 16.872-3.2697 39.787-0.19967 43.5 4.1336 4.9989 5.434 9.787 3.1585 11.63-2.6222 2.1233-2.6149 3.5144 0.0496 9.5376 1.1759 2.6581 2.3195 6.3537 2.5413 8.2125 0.22184 1.8587 1.0598 4.6489 1.862 6.2003 0.80228 1.5514 1.4587 3.8025 1.4587 5.0024s0.84939 3.5847 1.8875 5.2997c1.0381 1.7149 2.911 6.043 4.1618 9.618s2.6515 6.9275 3.1125 7.45 0.83819 1.8371 0.83819 2.9213 0.59057 2.6817 1.3124 3.55c0.72181 0.86831 2.1076 3.6037 3.0796 6.0787 0.97197 2.475 2.4711 5.85 3.3313 7.5 0.86024 1.65 1.902 4.575 2.3149 6.5 1.252 5.8361 7.5671 22.313 11.813 30.823 4.5527 9.1236 6.3549 17.177 3.8438 17.177-2.6428 0-4.6953-1.1579-4.6953-2.6487 0-0.78909-1.35-4.3222-3-7.8513s-3-6.6626-3-6.9632c0-0.30063-1.1524-2.9069-2.5608-5.7917-2.4322-4.9816-4.1392-9.2234-13.58-33.745-2.2234-5.775-4.6186-11.85-5.3227-13.5-0.70402-1.65-2.9777-7.275-5.0526-12.5s-4.3825-10.21-5.1281-11.079c-0.74553-0.86831-1.3555-2.2408-1.3555-3.05 0-0.80919-0.37983-1.8988-0.84408-2.4213-0.46424-0.5225-1.8844-3.65-3.1559-6.95-7.7724-20.172-11.742-26.031-15.344-22.647-1.9602 1.8415-6.6562 3.0397-6.6562 1.6984 0-1.5226 5.5657-17.711 7.1852-20.899 1.0749-2.1158 1.7238-4.448 1.4419-5.1826-0.28189-0.7346-0.11495-5.5285 0.37097-10.653 0.48593-5.1246 1.1374-19.055 1.4476-30.957 0.31028-11.902 1.026-24.052 1.5905-27 1.0673-5.5745-1.5145-9.8402-5.9651-9.8557-1.952-0.007-7.6921-1.8475-12.848-4.1199-4.6682-2.0576-6.8188-2.3484-7.6323-1.0321-1.1212 1.8141-2.7447 15.536-3.0002 25.357-0.1472 5.6595-0.83387 14.623-1.5259 19.919l-1.2583 9.6289 4.5967 7.9694c5.1142 8.8664 5.3439 9.7553 2.8784 11.135-1.3144 0.73557-2.4979 0.27712-5.0348-1.9503-8.152-7.1576-7.2693 4.492 2.864 37.797 1.039 3.415 1.8892 6.9546 1.8892 7.8658 0 0.91118 0.67536 3.7421 1.5008 6.2909 0.82545 2.5488 2.8797 10.484 4.5649 17.634 2.8817 12.226 11.744 41.752 17.559 58.5 1.4322 4.125 2.937 9.075 3.3439 11 0.40692 1.925 1.9304 6.997 3.3855 11.271 1.4551 4.2741 2.6456 8.3634 2.6456 9.0874s1.8364 4.9736 4.0809 9.4436c4.2513 8.4666 4.3392 10.198 0.51758 10.198-2.9686 0-8.0397-10.492-11.6-24-0.65229-2.475-1.5631-5.2321-2.024-6.1269-0.46089-0.89479-1.1408-3.2413-1.511-5.2144-0.37016-1.9731-1.3009-4.1086-2.0684-4.7456-0.76746-0.63694-1.3954-2.0526-1.3954-3.1458 0-2.2564-6.5745-24.363-8.0248-26.984-0.52247-0.94391-1.3801-3.4189-1.9058-5.5-2.2458-8.8901-5.0302-18.232-7.983-26.784-1.1394-3.3-4.1296-12.3-6.6448-20s-5.1556-15.35-5.8674-17c-1.6611-3.8502-2.8454-8.9867-5.7338-24.869-2.5419-13.977-3.2634-15.073-8.0973-12.298-6.0924 3.4966-6.1586 0.50008-0.24305-10.996l4.5-8.7453 0.007-14.546c0.006-12.712 1.5026-27.362 4.5513-44.546 0.48012-2.7061 0.16048-3.1648-3.2628-4.6821-2.0873-0.92515-4.92-2.3474-6.295-3.1605-1.375-0.81314-7.225-3.739-13-6.5019s-13.425-6.4246-17-8.1371-9.2-4.8796-12.5-7.038-7.35-4.5422-9-5.2974c-1.65-0.75519-3.6176-2.1178-4.3724-3.028-0.75485-0.91019-1.7856-1.6549-2.2905-1.6549-0.50492 0-2.1373-0.83938-3.6276-1.8653-1.4902-1.0259-5.3549-3.5634-8.5882-5.6389s-6.6083-4.6433-7.5-5.7063c-0.89172-1.063-2.9713-2.5667-4.6213-3.3417-3.9322-1.8468-12.265-7.9022-15.134-10.998-2.611-2.8173-4.4522-2.957-17.753-1.347-16.193 1.9601-16.972 2.1776-17.615 4.9207-0.80248 3.4233-4.0684 3.6296-7.7966 0.49256-2.2802-1.9187-3.7292-2.4221-5.6116-1.9497-2.1538 0.54056-2.859 0.0921-4.6627-2.9649-2.9703-5.0343-4.3039-4.6098-3.6075 1.1482 0.77894 6.4403 3.2676 18.119 4.5953 21.565 0.59656 1.5483 1.0952 6.2733 1.1082 10.5 0.0135 4.4056 0.86694 10.856 2 15.117 1.087 4.0878 1.9765 8.9416 1.9765 10.786 0 3.2884 2.6916 15.882 5.5102 25.781 0.78298 2.75 1.7253 7.7 2.094 11 0.54632 4.8891 1.5708 7.3578 5.5331 13.334 6.5886 9.9368 6.5149 12.013-0.34057 9.5945l-4.0224-1.4192 0.65769 3.2454c0.36173 1.785 1.0739 6.8454 1.5825 11.245 0.50867 4.4 1.3704 10.7 1.915 14 0.85138 5.1589 2.2542 16.608 4.5335 37 0.67468 6.036 1.2206 9.1425 2.9872 17 0.74196 3.3 1.6634 8.8133 2.0477 12.252 0.3843 3.4385 1.1054 6.5032 1.6025 6.8104 0.49708 0.30721 0.642 2.2189 0.32206 4.2482-0.32566 2.0656-0.0339 5.0101 0.6628 6.6896 1.3108 3.1598 1.8142 6.5218 4.305 28.752 0.84745 7.5633 1.9527 14.538 2.4561 15.5 0.50342 0.96167 1.4602 5.1235 2.1261 9.2485 2.1498 13.316 7.0082 39.396 8.0321 43.116 0.54741 1.9888 0.99529 5.1962 0.99529 7.1276s0.675 4.0717 1.5 4.7564c3.3553 2.7847 0.90566 9.6099-3.1676 8.8255-3.8734-0.74595-6.3504-9.1955-9.7696-33.326-0.85728-6.05-2.0065-13.025-2.5538-15.5s-2.3614-13.725-4.0313-25-3.4523-22.525-3.961-25c-0.50864-2.475-1.6109-9.225-2.4494-15-0.83855-5.775-2.3992-14.55-3.4682-19.5s-3.111-17.55-4.5379-28-3.2858-22.375-4.1308-26.5c-0.84508-4.125-2.1638-11.1-2.9304-15.5-0.76664-4.4-1.8452-10.594-2.3969-13.764-1.1585-6.6554-1.6733-7.7355-3.6874-7.7355-2.156 0-3.6656-4.6655-2.3219-7.1762 0.60204-1.1249 0.86899-3.683 0.59324-5.6845-1.7114-12.422-2.6994-18.04-3.58-20.356-0.54927-1.4447-2.3442-9.0744-3.9889-16.955-1.6446-7.8805-3.9478-18.603-5.1182-23.828s-2.7337-13.325-3.4739-18-2.0297-11.65-2.8656-15.5-1.7976-10.512-2.1371-14.806c-0.86211-10.901-1.5866-12.094-8.6383-14.229-3.2502-0.98408-6.4307-2.4174-7.0679-3.1851-0.63714-0.76771-2.5443-2.0278-4.238-2.8002-1.6938-0.7724-4.5095-2.579-6.2572-4.0146l-3.1776-2.6102-3.6422 7.5724c-3.9915 8.2987-7.1892 9.7895-12.93 6.0281l-2.3568-1.5442-0.71213 8.0447c-1.9018 21.485 2.5698 91.433 6.3435 99.228 3.268 6.7509 2.9434 8.5681-1.5056 8.4294-4.5125-0.1407-5.1409 1.5116-5.8515 15.386-0.26761 5.225-0.90519 15.06-1.4168 21.855-0.51164 6.7951-0.68336 12.998-0.38159 13.785 0.30177 0.7864 0.0417 3.3267-0.57785 5.6452-0.61959 2.3185-1.8005 11.64-2.6242 20.715s-1.9293 18.975-2.4569 22c-0.95671 5.4854-1.4688 14.652-2.9328 52.5-0.83207 21.511-3.4656 62.362-4.9639 77-0.50666 4.95-0.69192 13.113-0.41169 18.14l0.50952 9.14-4.544 0.3614-4.544 0.36139 0.51181-12.501c0.2815-6.8758 0.9424-17.451 1.4687-23.501 0.52627-6.05 1.3733-18.2 1.8823-27 0.50897-8.8 1.4016-20.826 1.9836-26.725 0.58199-5.8987 0.77174-11.866 0.42166-13.261-0.35008-1.3948-0.13569-5.3436 0.47641-8.7751s1.3301-11.639 1.5955-18.239c0.26544-6.6 0.92946-16.95 1.4756-23 0.54612-6.05 1.6622-23.825 2.4802-39.5 0.81799-15.675 2.0224-36.268 2.6764-45.763 1.2435-18.054 1.064-19.617-1.9409-16.898-4.8896 4.425-5.2819 1.2521-1.1279-9.122l3.0495-7.6157-1.2995-18.551c-0.71472-10.203-1.3098-35.192-1.3224-55.532l-0.0229-36.981-7.9771-2.0411c-4.3874-1.1226-8.5325-2.3906-9.2112-2.8179-0.67874-0.42728-3.6037-1.4757-6.5-2.3297-2.8963-0.85407-5.7159-1.8871-6.2659-2.2957-0.55-0.40854-3.1491-1.3244-5.7758-2.0351-2.6267-0.71079-5.0157-1.6806-5.309-2.1552-0.29326-0.47456-1.4542-0.86283-2.5798-0.86283s-3.3439-1.0916-4.9294-2.4257-5.4542-3.1732-8.597-4.0869c-3.1429-0.91366-6.8088-2.5221-8.1465-3.5743s-3.2017-1.9131-4.1423-1.9131c-0.94059 0-2.5246-0.9-3.5201-2-0.99549-1.1-2.5795-2-3.5201-2-0.94058 0-2.7833-0.80219-4.095-1.7826-1.3117-0.98045-6.4349-3.7173-11.385-6.0819-4.95-2.3646-9.9-4.7976-11-5.4067-1.1-0.60908-3.8-2.0833-6-3.276s-6.5526-3.5582-9.6725-5.2566c-4.2573-2.3176-5.9124-2.7897-6.6341-1.8921-1.7139 2.1315-14.017 28.141-14.765 31.214-0.39911 1.6401-1.8321 5.2319-3.1844 7.9819-4.7315 9.6215-8.9951 20.165-9.7052 24-0.30551 1.65-0.8216 39.675-1.1469 84.5-0.32526 44.825-0.61572 83.075-0.64545 85-0.0297 1.925 0.30674 7.2125 0.74772 11.75 0.78441 8.0712-1.1643 12.445-2.7844 6.25-1.4938-5.7124-5.829-0.28897-11.99 15-0.77573 1.925-2.1551 4.1176-3.0653 4.8724-0.91019 0.75485-1.6549 2.0087-1.6549 2.7864 0 0.77764-2.3111 6.235-5.1358 12.128-7.6002 15.855-12.976 27.391-14.079 30.214-0.53749 1.375-1.5978 3.625-2.3563 5s-2.7882 5.425-4.5105 9-5.2997 11-7.9497 16.5-5.0808 11.218-5.4016 12.708c-0.32084 1.4891-1.7046 3.9174-3.0749 5.396-1.3704 1.4787-2.4916 3.3184-2.4916 4.0884 0 0.76993-1.7825 4.8667-3.961 9.104-7.3813 14.356-12.039 24.335-12.039 25.791 0 0.79793-1.3133 3.9119-2.9185 6.9199s-3.4676 7.162-4.1388 9.2311c-0.67117 2.0691-2.0578 4.9564-3.0815 6.4163-1.0236 1.4599-1.8629 3.4849-1.8649 4.5s-0.95577 3.4073-2.1194 5.3161-2.7543 5.6212-3.535 8.25c-1.7038 5.7373-7.6185 7.3438-8.5771 2.3296zm613.5-298.77c3.8324-9.9158 16.112-21.067 16.549-15.028 0.22283 3.0798 0.74318 4.25 1.8898 4.25 0.87024 0 2.1194 0.73463 2.776 1.6325 1.9612 2.682 8.1926 0.10314 9.9575-4.121 1.5328-3.6684 3.1812-4.4379 8.9612-4.1831 5.4514 0.24032 6.7733 2.6042 3.7461 6.6987-2.7366 3.7015-2.1752 6.491 1.1241 5.5858 7.0387-1.9312 9.5314-1.8671 10.678 0.27453 1.284 2.3991 5.2197 2.8303 6.9379 0.76001 0.88182-1.0625-0.16403-2.5604-4.8776-6.9858-3.3-3.0983-6.0001-6.0371-6.0001-6.5307 0-1.7139-17.609-13.744-21.574-14.739-1.2891-0.32355-2.8674-1.2191-3.5073-1.9902-0.6399-0.77104-2.0773-1.4019-3.1942-1.4019s-4.9782-1.3926-8.5808-3.0947c-3.6025-1.7021-9.4961-3.736-13.097-4.5199-3.6007-0.78381-7.7843-1.6974-9.2968-2.0303-2.8936-0.63675-3.568 0.4269-1.55 2.4449 1.5906 1.5906-6.725 1.6277-16.145 0.072-6.7534-1.1153-20.403-0.51068-22.869 1.013-1.0356 0.64002-1.8259 5.9694-2.5305 17.065-0.28645 4.5103 8.7501 6.7963 13.796 3.49 2.1925-1.4366 2.4673-1.4167 3.4648 0.25 1.0273 1.7164 1.1379 1.7196 2.1331 0.0603 1.5547-2.5919 3.3688-2.129 4.6171 1.1781 0.86616 2.2947 1.8163 2.9978 4.3922 3.25 5.1997 0.50915 4.4962 2.3588-1.2877 3.3858-7.382 1.3108-7.7494 4.7766-0.55537 5.2394 5.513 0.35468 8.784-1.0748 8.784-3.8386 0-1.2982 0.6786-1.9648 2-1.9648 1.1111 0 2 0.66667 2 1.5 0 2.2732 1.2778 1.8154 4.1871-1.5 5.7154-6.5134 8.2631 2.4274 3.3816 11.867-1.9325 3.737-1.3164 5.6033 1.3744 4.1633 1.0019-0.5362 2.0439-1.5499 2.3155-2.2527zm-25.259-2.7104c0-1.3028-3.3865-2.24-5.3591-1.4831-2.8217 1.0828-1.7959 2.4157 1.8591 2.4157 1.925 0 3.5-0.41968 3.5-0.93261zm-22-6.4042c0-0.6703 0.9-1.9893 2-2.9312 3.5543-3.0433 1.5657-5.5928-3.3919-4.3485-3.151 0.79084-3.6888 2.5192-2.0195 6.4894 1.2816 3.048 3.4114 3.5415 3.4114 0.79033zm-39 0.45341c0-0.88865-3.32-2.0776-5.8724-2.103-1.1067-0.011-1.1314 0.27683-0.12756 1.4864 1.3332 1.6064 6 2.086 6 0.61663zm8.8054-7.6194c2.2144-1.1382 4.4101-1.4918 6.6519-1.0712l3.3465 0.62781 0.69456-10.277c1.017-15.048 0.76827-16.223-3.4984-16.524-1.925-0.13608-6.875-0.88844-11-1.6719-4.125-0.78347-11.094-1.9915-15.486-2.6845-4.3924-0.69298-9.1174-1.8504-10.5-2.5719-1.3826-0.72158-3.1207-1.3147-3.8626-1.3181-0.74188-0.003-2.7669-0.63733-4.5-1.4088-1.7331-0.77143-6.7511-2.5355-11.151-3.9202-6.9713-2.1939-17.203-6.4715-26.904-11.248-1.597-0.78629-3.3708-1.4296-3.9418-1.4296-0.57101 0-4.068-1.8-7.7712-4s-7.9184-4-9.3672-4c-3.9865 0-2.2259 1.6448 6.3185 5.903 11.89 5.9254 19.507 10.039 20.583 11.115 0.54022 0.54022 1.6922 0.98222 2.56 0.98222 0.86777 0 2.3484 0.9 3.2902 2 0.94185 1.1 2.3919 2 3.2222 2 0.83039 0 1.5098 0.45 1.5098 1 0 1.5831-4.6206 1.162-6.042-0.55056-1.6846-2.0299-6.34-1.4816-6.7722 0.79765-0.21559 1.1368 0.58837 2.0968 2.3016 2.7481 1.4481 0.55058 2.3714 1.4242 2.0517 1.9415-1.0442 1.6896 2.6212 2.9034 5.6155 1.8596 2.1542-0.75097 3.1569-0.62759 4.3155 0.53103 0.83011 0.83011 2.8588 1.8057 4.5081 2.1679 5.1582 1.1329 4.4503 6.4625-1.1161 8.403-3.7917 1.3218-3.7145 3.9813 0.13784 4.7518 1.65 0.33 3 0.99375 3 1.475 0 1.3133 4.7717 1.0534 5.6117-0.30569 0.42613-0.68949-0.17335-1.7803-1.441-2.622-1.1939-0.79271-2.1707-1.8364-2.1707-2.3193 0-1.1954 4.7334-1.1184 5.4798 0.0892 0.32878 0.53198 1.9111 0.70457 3.5163 0.38353 4.0518-0.81036 10.004 5.3114 10.004 10.289 0 4.1072 2.5062 4.5244 7.0405 1.1721 3.6023-2.6633 3.687-3.5233 0.49087-4.9796-1.3578-0.61863-2.2312-1.509-1.941-1.9786 0.69438-1.1235 7.1367-1.1044 7.8336 0.0232 0.29812 0.48236 2.6653 1.4117 5.2605 2.0651 2.5952 0.65347 5.3283 2.0588 6.0737 3.123 0.95043 1.3569 2.5331 1.9349 5.2985 1.9349 6.1567 0 4.6255 1.8646-1.8067 2.2001-4.2963 0.22408-5.7567 0.67912-5.7764 1.7999-0.0145 0.825-0.39191 2.084-0.83861 2.7979-2.6312 4.2046 1.7073 4.5355 9.1705 0.69934zm-69.805-27.372c0-1.2971-0.95625-2.0662-3.1027-2.4955-3.9746-0.79492-5.1842-0.034-3.8648 2.4312 1.428 2.6682 6.9675 2.7194 6.9675 0.0643zm110.33-4.7853c0.36317-0.36316-0.22045-1.2772-1.2969-2.0312-1.9618-1.3741-6.03-0.0706-6.03 1.9321 0 0.93086 6.4085 1.0176 7.327 0.0991zm-30.584-2.5897c0.54354-0.6875 1.296-2.6 1.6722-4.25 1.4284-6.2654 2.7392-13.128 3.1516-16.5 0.23541-1.925 0.83828-6.65 1.3397-10.5 2.8601-21.96 4.0399-20.379-12.217-16.375-12.912 3.1796-11.546 1.9997-12.728 10.992-0.53377 4.0607-1.3858 9.858-1.8934 12.883-1.3665 8.1439-1.2997 20.739 0.1146 21.613 3.8779 2.3966 19.103 3.9789 20.56 2.1366zm-37.732-17.5c1.1856-5.3625 2.533-10.65 2.9942-11.75 4.2084-10.037 1.8431-13.138-8.1055-10.627-4.0702 1.0276-11.9 2.6581-17.4 3.6235-5.5 0.96535-15.301 2.8041-21.78 4.0862-6.4792 1.282-12.329 2.1301-13 1.8846-1.6682-0.61067-4.1197 1.0761-3.3571 2.31 0.34026 0.55056 1.8604 1.3106 3.3781 1.6889 1.5177 0.37835 4.1094 1.2758 5.7594 1.9944 1.65 0.71859 5.025 2.1971 7.5 3.2855s6.3 2.5251 8.5 3.1926c2.2 0.66749 7.375 2.4732 11.5 4.0127 21.87 8.1622 21.372 8.239 24.012-3.7016zm-54.447 6.8541c-0.7332-1.1863-12.143-7.1041-13.698-7.1041-0.6684 0-0.1584 1.125 1.1334 2.5s2.9593 2.5 3.7057 2.5c0.74639 0 1.6161 0.675 1.9327 1.5 0.35783 0.93249 1.8817 1.5 4.0276 1.5 1.8986 0 3.2029-0.40315 2.8983-0.89588zm-74.564-16.104c0-1.276-5.0255-1.276-7 0-1.0985 0.70991-0.36246 0.97347 2.75 0.98469 2.3375 0.008 4.25-0.43469 4.25-0.98469zm22.5-3.5267c4.95-0.86563 11.25-2.1686 14-2.8956 4.5704-1.2081 7.8379-1.7923 26-4.6484 3.3-0.51894 10.5-1.8134 16-2.8766s12.925-2.4619 16.5-3.1081c33.62-6.0775 52.539-9.9884 57.315-11.848 1.5483-0.60293 3.8842-1.0962 5.191-1.0962 1.3067 0 2.6933-0.51358 3.0812-1.1413 1.0846-1.7549-10.823-0.0389-37.587 5.4171-36.97 7.5363-44.689 9.022-50.5 9.7202-3.3 0.3965-9.825 1.6553-14.5 2.7974s-13 2.7928-18.5 3.6684c-20.233 3.2209-31.576 5.2812-32.131 5.836-1.3065 1.3065 1.0287 2.8552 3.4984 2.3199 1.448-0.31381 6.6828-1.2788 11.633-2.1444zm-46.091-0.98416c2.6999-0.81905 6.6109-1.4892 8.691-1.4892 4.9966 0 5.8573-1.694 1.7402-3.4252-2.8283-1.1892-3.695-1.1841-6.0533 0.0354-1.5138 0.78282-4.7336 1.6949-7.1551 2.0268-5.7033 0.78172-7.717 1.9788-5.6317 3.3477 1.976 1.2971 2.6258 1.2588 8.4089-0.49551zm43.925-9.9161c1.129-2.9421-1.8863-3.6781-4.3453-1.0606l-2.3369 2.4875h3.0673c1.7342 0 3.3053-0.62017 3.6149-1.4269zm14.666-2.4753c0-1.1516-5.5313-3.0978-8.8042-3.0978-2.4424 0-2.46 0.0506-0.69579 2 1.856 2.0508 9.5 2.9342 9.5 1.0978zm23-3.1588c1.0011-0.58614-0.22658-0.88838-3.691-0.90867-4.964-0.0291-7.066 0.87928-5.5478 2.3975 0.81313 0.81313 7.0138-0.18611 9.2388-1.4888zm-176-5.8615c0-0.96953-4.112-2.4614-10-3.6281-1.925-0.38143-5.1696-1.5386-7.2102-2.5715-3.7413-1.8937-7.8909-2.4436-9.1253-1.2092-1.3292 1.3292 7 4.9515 14.335 6.2344 4.125 0.72142 7.95 1.4528 8.5 1.6253 2.0283 0.63612 3.5 0.44651 3.5-0.45094zm55.15-1.8609c-0.6325-0.21084-1.15-1.032-1.15-1.8248 0-0.79278-1.125-1.8692-2.5-2.3919-1.375-0.52277-2.5-1.3592-2.5-1.8586 0-0.49946-0.94528-1.1553-2.1006-1.4574-1.1567-0.30248-1.8042-1.0289-1.441-1.6166 0.97124-1.5715 5.1052-1.2981 6.5416 0.43269 1.7228 2.0759 4 1.8795 4-0.34501 0-2.5976-3.1051-5.1028-8.1688-6.5906-3.4624-1.0172-4.3922-1.7777-4.6353-3.7911l-0.30414-2.5186 5.7122 2.8813c6.4546 3.2558 6.8598 3.2138 5.4241-0.5624-0.56539-1.4871-1.028-3.7383-1.028-5.0027 0-1.5534-1.2972-3.1978-4-5.0709-4.6125-3.1965-4.7853-3.7346-1.8293-5.6973 2.4159-1.6041 1.7757-3.8027-1.1073-3.8027-1.0002 0-2.3787-0.675-3.0634-1.5-1.543-1.8592 0.91108-2.1889 2.7328-0.36722 1.2619 1.2619 4.2672 0.49625 4.2672-1.0872 0-0.55945-1.9125-2.2424-4.25-3.7398s-4.462-2.8783-4.721-3.0686c-1.2035-0.88392 2.6812-2.0452 5.1739-1.5466 3.52 0.704 3.5312-0.47274 0.0471-4.9476-1.5125-1.9426-3.2597-4.367-3.8827-5.3875-2.3448-3.841-2.5027-2.7887-3.7992 25.325-0.23287 5.0493-0.84583 9.9993-1.3622 11-2.303 4.4634-0.91751 13.691 2.2861 15.227 3.4738 1.6648 4.4844 2.5884 6.9396 6.3428 1.0855 1.6598 2.6954 2.75 4.061 2.75 1.2444 0 2.8637 0.72434 3.5984 1.6096 1.0285 1.2393 1.4363 1.3083 1.7724 0.3 0.2401-0.72031-0.0809-1.4822-0.71345-1.693zm-11.887-24.516c-3.2923-2.2388-4.3205-4.7011-1.9631-4.7011 0.715 0 1.81 0.51 2.4333 1.1333 0.62333 0.62333 2.1758 1.1858 3.45 1.25 1.6055 0.0808 2.3167 0.7264 2.3167 2.103 0 2.7444-2.3956 2.8269-6.2369 0.21481zm41.737 25.518c0-0.87084-6.1436-3.409-6.7598-2.7927-0.39149 0.39149 4.5923 3.2669 6.0098 3.4674 0.4125 0.0583 0.75-0.24526 0.75-0.67468zm-43.006-1.9692c-0.009-1.1068-6.0345-4.3428-6.9883-3.7533-0.44968 0.27791-0.58235 1.4048-0.29484 2.5043 0.51236 1.9593 7.299 3.1231 7.2832 1.249zm-28.994-2.809c0-1.6501-1.5804-1.9288-2.5-0.44098-0.81551 1.3195 0.38021 3.1921 1.5691 2.4573 0.51199-0.31643 0.9309-1.2238 0.9309-2.0163zm64 0.91926c0-1.1185-3.4336-3.2954-5.25-3.3284-0.9625-0.0175-1.75 0.39584-1.75 0.91851s0.7875 1.409 1.75 1.9696c1.964 1.144 5.25 1.4196 5.25 0.44034zm-77-5.9451c0-7.6506-7.2021-10.948-15.05-6.8895-4.8941 2.5308-3.5012 7.5844 2.1869 7.9345 1.8495 0.11382 4.7095 0.91419 6.3556 1.7786 3.7159 1.9514 6.5071 0.74022 6.5071-2.8236zm209 1.5848c1.1414-0.73761 0.73709-0.97304-1.691-0.98469-1.755-0.008-3.4691 0.43469-3.809 0.98469-0.79212 1.2817 3.5167 1.2817 5.5 0zm42.801-0.88539c0.36156-1.098-0.34829-1.2375-3.4223-0.67218-5.7781 1.0625-6.8147 2.7501-1.4562 2.3707 2.6559-0.18806 4.6045-0.86649 4.8785-1.6985zm-169.39-0.47402c-0.28691-0.74767-1.5537-1.9118-2.8152-2.5868-1.2614-0.6751-3.3751-3.4352-4.697-6.1336-3.6389-7.428-8.5666-7.7478-7.2006-0.46728 0.74761 3.9848 2.7882 6.227 7.7466 8.512 4.9433 2.278 7.683 2.5438 6.9661 0.67571zm140.58-2.7988c0.99677-0.61715 0.3258-0.70789-2-0.27047-1.925 0.36205-4.175 1.0762-5 1.587-0.99677 0.61715-0.3258 0.70789 2 0.27047 1.925-0.36205 4.175-1.0762 5-1.587zm-262-0.18873c0-0.19084-0.93942-1.4283-2.0876-2.75s-2.3857-2.8825-2.75-3.4684c-0.36432-0.586-3.5874-2.1165-7.1624-3.401-3.575-1.2846-7.85-3.1098-9.5-4.0562-1.65-0.94634-7.5-3.3791-13-5.406-11.432-4.2131-23.909-10.154-25.597-12.189-0.63118-0.76052-1.88-1.3983-2.7752-1.4172-0.89516-0.0189-4.9704-1.3529-9.0562-2.9643-7.6102-3.0015-7.8242-1.8878-0.42364 2.2049 2.2813 1.2616 7.5476 4.2063 11.703 6.5438 4.1553 2.3375 7.7864 4.25 8.069 4.25 0.28262 0 5.2253 2.25 10.984 5 5.7584 2.75 10.737 5 11.064 5 0.32676 0 3.6931 1.7561 7.4807 3.9024s8.3863 4.2256 10.219 4.6208c1.833 0.39511 4.9078 1.5442 6.8328 2.5534 3.2211 1.6888 6 2.419 6 1.5764zm-111.99-5.7253c1.8182-5.3456 7.5918-16.823 9.5545-18.993 0.77867-0.86109 1.6978-2.9756 2.0424-4.6989 0.34466-1.7233 1.475-3.901 2.5119-4.8394 2.9982-2.7134 0.30976-5.181-12.832-11.777-9.2655-4.651-9.6948-2.878-7.2201 29.822 1.3299 17.574 2.7063 20.002 5.9428 10.487zm121.4-4.8272c1.5577-1.7212 4.5499-10.772 4.5791-13.851 0.0362-3.8141-6.9873 0.70269-8.4119 5.4097-0.35951 1.1878-1.3112 2.7054-2.1149 3.3724-1.4986 1.2437-1.9861 5.1097-0.7946 6.3012 1.315 1.315 5.0555 0.63111 6.7423-1.2328zm21.341-3.3506c-0.22917-0.6875-1.2417-1.25-2.25-1.25s-2.0208 0.5625-2.25 1.25c-0.26389 0.79167 0.56111 1.25 2.25 1.25s2.5139-0.45833 2.25-1.25zm35.235-4.059c0.009-1.6211-0.40759-2.5476-0.98469-2.191-0.55 0.33992-0.99311 2.279-0.98469 4.309 0.0114 2.7512 0.26212 3.3091 0.98469 2.191 0.53316-0.825 0.97627-2.7641 0.98469-4.309zm49.747 2.5579c-1.5224-1.5119-3.6925-3.9864-4.8226-5.4989-2.5595-3.4257-4.9095-3.5845-4.9095-0.33179 0 4.089 1.0552 5.5015 4.6076 6.168 1.878 0.35231 3.6611 1.0396 3.9625 1.5272 0.30139 0.48765 1.3089 0.88613 2.239 0.88552 1.3271-0.00088 1.0954-0.59259-1.077-2.75zm-120.22-0.2716c0.35466-0.57384-1.9237-2.1448-5.191-3.5792-9.0557-3.9757-19.338-9.3211-24.823-12.905-2.75-1.7968-6.125-3.6085-7.5-4.026-1.375-0.41747-4.3-1.9108-6.5-3.3185s-6.475-3.846-9.5-5.4185-7.3-3.9476-9.5-5.278c-5.1053-3.0874-6.3189-3.0584-7.5502 0.18022-1.5278 4.0185-0.39749 5.8194 5.3062 8.4542 2.8738 1.3275 6.1294 3.3465 7.2346 4.4865s3.8094 2.6611 6.0094 3.3802c2.2 0.71905 8.1226 3.2738 13.161 5.6772 5.0388 2.4034 9.7638 4.3717 10.5 4.374 0.73625 0.002 3.4194 1.06 5.9627 2.3504 2.5432 1.2904 5.6932 2.6965 7 3.1246 11.102 3.6368 14.359 4.1655 15.39 2.4981zm60.946-0.91312c0.31811-0.51471 1.0005-4.0022 1.5163-7.75 0.51587-3.7478 1.4243-9.9642 2.0188-13.814 1.0624-6.8808 1.0376-7.0347-1.4573-9.0376-3.2238-2.588-3.1862-2.9514 0.46185-4.4624 4.3545-1.8037 3.2691-4-1.9768-4-2.9002 0-5.1417 22.478-2.8264 28.342 0.71244 1.8044 0.76894 3.0825 0.15471 3.5-2.4736 1.6813-4.2793 5.5398-3.2007 6.8395 1.2643 1.5234 4.4619 1.7536 5.3094 0.38231zm130.04-1.0028c20.196-2.3514 32.463-4.5282 45.5-8.0745 3.575-0.97246 8.5027-2.0621 10.95-2.4213 2.4477-0.35928 4.9227-1.0047 5.5-1.4343 0.57728-0.42958 2.9621-1.3279 5.2996-1.9963 5.7702-1.6499 5.4841-2.1378-3.9197-6.6847-4.4933-2.1726-8.9859-4.8146-9.9835-5.871-2.4068-2.5488-18.495-2.7016-31.347-0.2976-9.6721 1.8092-15.5 2.1733-15.5 0.96822 0-0.87611 9.7217-3.8911 15.465-4.7963 2.181-0.34372 5.1962-1.2614 6.7004-2.0392 4.208-2.176 13.629-1.8083 18.338 0.71581 4.8681 2.6092 14.244 5.812 17.111 5.8453 1.1633 0.0135 3.205 0.88185 4.537 1.9296s4.2755 2.8712 6.5412 4.0521l4.1193 2.1471 6.0636-2.5521c3.335-1.4037 6.6101-2.5521 7.278-2.5521 1.2242 0 8.0902-2.9456 13-5.5773 1.4599-0.78247 3.5367-1.4227 4.6151-1.4227 1.0785 0 3.105-0.9 4.5034-2s3.6217-2 4.9406-2 3.9228-1.125 5.7866-2.5c1.8637-1.375 3.7953-2.5 4.2924-2.5 0.8437 0 17.388-7.9805 20.708-9.9886 0.825-0.4991 2.85-1.5797 4.5-2.4013 20.194-10.056 29.517-16.694 25.333-18.037-0.73324-0.23542-3.9207-0.71803-7.0832-1.0725-4.0148-0.44998-5.75-1.0754-5.75-2.0725 0-1.9923 11.507-1.9338 15.364 0.0781 3.7931 1.9783 5.322 1.8857 8.3628-0.50616 1.3984-1.1 3.1569-2 3.9077-2 4.6821 0-0.41127-4.4599-7.4326-6.5083-8.5015-2.4802-8.9547-3.8102-1.0698-3.1397 9.241 0.78586 9.2136 0.77997 11.05 2.375 2.0092 1.7448 7.2682 0.92769 10.317-1.603 3.2979-2.7373 8.3652-6.1222 9.2095-6.1518 0.43477-0.0153 2.0737-1.336 3.6421-2.9349l2.8516-2.9072-4.8516-3.0701c-2.6684-1.6886-5.8641-3.3416-7.1016-3.6735-2.6664-0.71501-2.9927-2.3416-0.5-2.4925 3.8094-0.23066 7.8105 0.34646 8.9626 1.2928 3.8524 3.1643 12.68 1.9298 16.222-2.2685 2.6978-3.1975 3.1408-4.2534 2.0637-4.919-5.7859-3.5759-50.973-3.9335-59.999-0.4749-3.0486 1.1683-8.5316 1.8719-17 2.1817-7.1877 0.26295-13.775 1.0205-15.5 1.7825-1.65 0.72889-7.05 1.6301-12 2.0027-4.95 0.37259-11.7 1.4879-15 2.4785-5.5908 1.6782-8.8934 2.5716-18.961 5.1288-2.1784 0.55335-4.4284 1.3767-5 1.8297-1.4637 1.1599-15.432 6.1328-19.039 6.7784-1.65 0.29528-3.675 1.0717-4.5 1.7253-0.825 0.65363-4.0722 1.967-7.2159 2.9186-3.1438 0.95158-5.9828 2.162-6.309 2.6898s-1.3186 0.95964-2.2053 0.95964c-0.88673 0-2.3579 0.67479-3.2692 1.4995-0.91133 0.82474-4.9968 2.6827-9.0787 4.1288-4.082 1.4461-8.0968 3.2067-8.9218 3.9126-0.825 0.70582-5.325 2.873-10 4.8161-19.09 7.9343-54 26.459-54 28.656 0 0.54311-1.0125 0.98832-2.25 0.98937-1.2375 0.001-5.85 2.1562-10.25 4.7893-4.4 2.633-9.6875 5.5783-11.75 6.545-3.4733 1.6279-5.0245 3.6638-2.7916 3.6638 0.5271 0 5.5896-2.177 11.25-4.8378 14.14-6.6469 15.792-7.2891 15.792-6.1407 0 0.53821-0.38001 0.97856-0.84446 0.97856s-2.152 1.1244-3.75 2.4988c-1.598 1.3743-3.4103 2.4993-4.0272 2.5-0.61694 0.00067-4.4419 2.1394-8.5 4.7528s-9.1783 5.627-11.378 6.6969c-3.4814 1.6932-3.7086 1.9936-1.7526 2.3176 1.3303 0.22038 6.4311-1.7732 12.5-4.8854 5.639-2.8918 11.603-5.8087 13.253-6.4821 6.9622-2.8414 16.485-7.5645 17.03-8.4469 0.3235-0.52343 1.7046-0.95169 3.069-0.95169s4.245-0.9 6.4011-2c2.1562-1.1 4.4624-2 5.1251-2 0.6626 0 4.618-1.2896 8.7898-2.8658 9.5978-3.6263 13.538-4.8091 18.743-5.6261 2.2868-0.35898 4.9868-1.2808 6-2.0486 1.0132-0.76774 2.9672-1.4167 4.3422-1.4422s4.525-0.78745 7-1.6932c2.475-0.90577 7.65-1.7935 11.5-1.9728 3.85-0.17927 8.4625-0.60771 10.25-0.95208 2.5696-0.49505 3.25-0.29233 3.25 0.96831 0 0.87694-1.0125 1.7932-2.25 2.0361-9.092 1.7845-27.126 5.8748-31.25 7.0879-2.75 0.80887-7.25 2.1149-10 2.9022-5.9068 1.6912-13.187 4.1897-19.685 6.756-2.577 1.0177-5.6303 1.8503-6.7852 1.8503s-3.1205 0.66881-4.3681 1.4862c-1.2476 0.81744-4.7192 2.3368-7.7148 3.3765-2.9956 1.0396-7.651 3.0708-10.345 4.5138-2.6944 1.4429-5.4227 2.6235-6.0628 2.6235-0.64014 0-3.3856 1.065-6.1011 2.3667-2.7154 1.3017-5.9496 2.682-7.1872 3.0674-8.4533 2.6325-0.0489 2.9845 12.96 0.54289 5.9165-1.1105 7.0062-1.0653 9.2148 0.38181 1.3776 0.90266 4.2306 1.6412 6.34 1.6412s4.2627 0.4239 4.7852 0.942c0.5225 0.51811 3.8221 1.4027 7.3324 1.9658 6.9582 1.1161 7.6458 1.4286 6.6587 3.0257-0.92291 1.4933-5.5693 1.3308-7.4624-0.26095-2.8613-2.4059-9.2705-3.5334-15.079-2.6526-3.025 0.45873-7.8405 0.86691-10.701 0.90706-7.5318 0.10571-22.434 4.2707-20.872 5.8333 3.2129 3.2129 34.475 5.2335 51.073 3.3011zm-18.946-17.974c-1.1751-1.9014 0.26099-2.8049 5.5801-3.5105 2.8484-0.37785 6.4361-1.3372 7.9728-2.1318 2.9283-1.5143 8.9159-1.9837 8.8619-0.69481-0.0757 1.8074-5.05 4.1113-11.01 5.0994-3.5522 0.58895-7.4204 1.353-8.5958 1.6978-1.1754 0.34484-2.4395 0.13778-2.809-0.46013zm93.946-14.087c-0.33992-0.55-0.47898-1.0281-0.30902-1.0624 6.9555-1.4049 15.434-0.7572 14.291 1.0917-0.79269 1.2826-13.187 1.2566-13.982-0.0293zm-103.8-2.6315c-1.456-1.456-0.58523-2.2987 3.0482-2.9498 2.0625-0.36958 4.425-1.2159 5.25-1.8806 0.825-0.66475 3.075-1.7921 5-2.5052 1.925-0.71312 7.803-3.4213 13.062-6.0182 5.2593-2.5969 11.222-5.0329 13.25-5.4134 2.2432-0.42082 3.6877-1.2616 3.6877-2.1465 0-0.89929 0.991-1.4547 2.5956-1.4547 1.4276 0 3.7901-0.84096 5.25-1.8688s3.7794-2.2042 5.1544-2.614c1.375-0.40986 3.9031-1.5939 5.618-2.6312 3.2443-1.9624 11.382-2.6142 11.382-0.91166 0 1.1405-5.2519 4.0257-7.3279 4.0257-0.78496 0-1.9874 0.675-2.6721 1.5-0.68469 0.825-1.9773 1.4987-2.8724 1.4971-0.89516-0.002-4.5526 1.176-8.1276 2.6168-8.99 3.6232-9.7151 3.9039-16.5 6.3868-5.0412 1.8448-12.564 5.165-20.736 9.1521-0.95504 0.46593-2.4175 0.84715-3.25 0.84715-0.83246 0-2.3678 0.85418-3.4118 1.8982-2.0654 2.0654-7.2733 3.597-8.4 2.4703zm100.35-19.757c-3.5046-1.5638-2.2992-2.43 4.1953-3.0146 32.231-2.9015 74.352-2.2896 75.481 1.0965 0.67311 2.0193-6.5237 2.6645-18.701 1.6764-6.3416-0.51456-17.155-0.61596-24.03-0.22533-21.944 1.2468-34.833 1.4098-36.945 0.46702zm-25.055-12.919c0-0.86114 1.3992-1.6575 3.5156-2.0009 1.9336-0.31377 4.6348-1.4509 6.0029-2.527 1.7682-1.3909 4.8716-2.1631 10.734-2.6712 4.5359-0.39305 8.7425-1.1142 9.348-1.6025 1.7668-1.425 9.6781-2.1384 12.377-1.1162l2.478 0.93851-3.3495 1.7321c-2.2304 1.1534-4.4443 1.5267-6.6264 1.1173-2.3296-0.43704-4.2523-0.0393-6.651 1.376-1.8558 1.0949-6.064 2.2933-9.3516 2.6631s-6.6526 1.0032-7.4776 1.4077c-3.4549 1.6936-11 2.1621-11 0.68304zm106.24-7.3998c-4.2172-0.81056-1.1519-2.2923 4.7421-2.2923 6.418 0 9.3135 0.72054 8.458 2.1048-0.55216 0.89342-8.9098 1.0122-13.2 0.18754zm6.0866-9.6184c-5.8763-2.1705-4.8723-2.8784 3.1782-2.241 12.83 1.0158 16.577 1.6335 15.96 2.6312-0.81493 1.3186-15.312 1.023-19.139-0.39026zm-340.32 71.526c0-2.0932-1.8419-4.2-3.672-4.2-0.69958 0-5.4471-1.9745-10.55-4.3878s-12.203-5.6054-15.778-7.0936-9.2-3.9577-12.5-5.4878c-10.816-5.015-19.33-4.6301-9.787 0.44248 2.6328 1.3995 5.462 2.9808 6.287 3.514 0.825 0.53319 4.6314 2.4061 8.4587 4.162s9.9023 4.8837 13.5 6.9505c3.5977 2.0669 7.8913 4.0821 9.5413 4.4782 1.65 0.39616 3.8876 1.3282 4.9725 2.0711 3.0545 2.0918 9.5275 1.7866 9.5275-0.4492zm62.914-3.2c-0.0503-2.2896-0.12731-2.3317-0.9144-0.5-1.2719 2.9599-1.2719 6.4681 0 4.5 0.53316-0.825 0.94464-2.625 0.9144-4zm-38.779 0.90372c3.0086-2.1424 10.865-12.077 10.865-13.739 0-0.5064 0.95657-1.5559 2.1257-2.3321 3.5155-2.3342 1.7848-7.8399-2.4552-7.8106-10.811 0.0749-21.264 12.348-18.682 21.937 1.2731 4.728 3.4936 5.2583 8.1464 1.9452zm57.157-23.511c-0.11433-1.0408-0.70206-6.6174-1.3061-12.392-1.4125-13.505-2.2197-15.196-3.1025-6.5-0.39086 3.85-1.1444 9.2444-1.6746 11.987-1.1204 5.7971-0.72035 7.3622 2.1802 8.5293 2.8794 1.1586 4.1506 0.62957 3.903-1.6244zm58.708-2.8924c0.68469-0.825 1.8709-1.5 2.636-1.5 0.76512 0 2.1725-0.39258 3.1276-0.8724 13.269-6.6665 63.518-31.095 77.236-37.549 3.025-1.4231 6.625-3.2076 8-3.9657 4.2756-2.3572 7.1731-3.497 17.537-6.8985 5.5205-1.8118 12.72-4.9978 16-7.0799 5.4731-3.4749 6.4195-3.7477 11.526-3.3219 3.6349 0.30307 6.7544-0.0486 9-1.0146 7.0554-3.0351 14.698-5.07 23.437-6.2403 4.95-0.66287 11.025-1.6749 13.5-2.249 2.475-0.57409 10.125-1.6886 17-2.4766 6.875-0.78807 15.875-1.88 20-2.4266 10.069-1.3341 45.446-1.7845 55.901-0.71179 10.615 1.0892 14.214 0.01076 18.165-5.443 4.1823-5.7735 4.7648-5.4388-14.903-8.562-8.5616-1.3595-3.766-2.6895 9.3978-2.6064l13.06 0.08246 3.1848-4.8129 3.1848-4.8129-2.4965-1.6358c-1.3731-0.89967-3.4036-1.3985-4.5123-1.1086-1.1087 0.28993-2.6508-0.10779-3.4268-0.88383-0.77604-0.77604-1.9197-1.411-2.5414-1.411-4.2353 0 1.0425-1.5814 6.1172-1.8329 8.2451-0.40862 11.87-2.4963 11.87-6.8357 0-10.704-59.303-8.8607-89.383 2.779-2.6858 1.0393-5.9628 1.8896-7.2821 1.8896s-3.8468 0.60438-5.6166 1.3431c-1.7698 0.73869-5.0179 1.6624-7.2179 2.0527s-6.25 1.5323-9 2.5378c-8.8136 3.2226-11.892 4.2414-17 5.6258-4.2568 1.1538-8.15 2.5015-16.5 5.7119-0.825 0.3172-3.1118 1.0708-5.0818 1.6747-1.97 0.60389-5.3276 1.9881-7.4614 3.076s-4.5844 1.978-5.4457 1.978c-0.86132 0-2.4537 0.57908-3.5386 1.2868-2.1468 1.4005-10.761 4.8549-16.709 6.7-2.0548 0.6375-3.9939 1.5763-4.309 2.0861-0.31512 0.50988-1.3274 0.92704-2.2496 0.92704-1.8264 0-5.5418 1.6984-26.705 12.207-7.7 3.8235-15.661 8.266-17.691 9.8722-2.0302 1.6062-4.3662 2.9204-5.191 2.9204s-1.8061 0.49592-2.1807 1.102c-0.3746 0.60612-2.0887 1.7622-3.809 2.569-5.531 2.594-9.0908 4.5628-10.628 5.878-1.43 1.2236-10.924 6.4402-19.5 10.715-2.2 1.0965-5.35 2.9473-7 4.1129s-4.2362 2.7951-5.7471 3.6213c-13.501 7.382-28.464 17.434-26.511 17.81 1.6819 0.3239 9.0724-3.889 10.296-5.8694 0.83199-1.3462 17.023-8.9386 19.062-8.9386 0.77024 0 1.4004-0.47296 1.4004-1.051 0-0.57806 1.4625-1.6718 3.25-2.4305 1.7875-0.75873 4.7999-2.5358 6.6943-3.949s4.0387-2.5695 4.7652-2.5695c0.72648 0 3.9016-1.4625 7.0557-3.25 7.6296-4.3238 11.464-5.5793 14.082-4.611 1.1854 0.43853 2.9021 0.51079 3.8147 0.16057 1.4194-0.54466 1.3469-0.75234-0.50111-1.436-1.1883-0.43957-2.1605-1.2778-2.1605-1.8628 0-1.7125 3.1063-2.4156 5.1189-1.1587 2.2066 1.3781 6.2302 1.5042 8.6447 0.27089 5.8437-2.9848 17.538-6.1035 15.836-4.2234-0.96087 1.0618-2.9514 2.231-4.4234 2.5983-1.472 0.36732-3.3768 1.2987-4.2328 2.0697-0.85601 0.77102-4.231 2.2757-7.5 3.3438-3.269 1.068-7.8344 2.8772-10.145 4.0202-2.3109 1.1431-4.8503 2.0783-5.643 2.0783-0.79272 0-1.7003 0.675-2.0169 1.5-0.31658 0.825-1.4576 1.5-2.5356 1.5s-2.635 0.675-3.46 1.5-1.7559 1.5-2.0688 1.5c-1.3342 0-13.574 6.2117-13.574 6.8888 0 0.85288-15.135 8.1112-16.914 8.1112-2.2179 0-13.587 7.2248-15.913 10.112-1.2793 1.5884-1.8969 2.8879-1.3724 2.8879 0.52448 0 1.5138-0.675 2.1985-1.5zm65.549-45.421c-0.59015-0.95487 3.1309-3.0792 5.3937-3.0792 0.44686 0 1.3727-0.675 2.0574-1.5 1.4774-1.7802 4.3387-2.016 3.7703-0.31085-1.0547 3.164-9.9046 7.0206-11.221 4.89zm18.451-9.0792c0-0.55 1.4625-0.99311 3.25-0.98469 2.4662 0.0116 2.8883 0.24909 1.75 0.98469-1.9655 1.2702-5 1.2702-5 0zm8.5-4c0.33992-0.55 1.4915-1 2.559-1s1.941 0.45 1.941 1-1.1516 1-2.559 1c-1.4514 0-2.2915-0.43284-1.941-1zm6.5-2.8899c0-1.6094 2.9736-2.8378 5.6371-2.3286 1.3456 0.25722 2.2804 0.97411 2.0774 1.5931-0.46429 1.4156-7.7145 2.1069-7.7145 0.73549zm123.04-28.031c-1.5982-1.0112 0.89612-3.6953 6.0754-6.5376 1.4458-0.79345 2.8864-2.114 3.2013-2.9344 1.3526-3.5247 14.88-8.5474 23.075-8.5676 6.4062-0.01579 6.2517 3.0604-0.21527 4.2858-7.7456 1.4677-19.675 7.0857-24.161 11.378-3.5652 3.4117-5.4505 3.9732-7.9758 2.3756zm-44.053-0.94576c0-0.99054 4.957-2.4847 5.7181-1.7236 0.26518 0.26518 0.18552 0.96208-0.17701 1.5487-0.79528 1.2868-5.5411 1.4366-5.5411 0.17494zm67 0.16756c0-2.6039 17.114-6.0693 23.28-4.714l3.2203 0.70782-2.5 1.0524c-1.375 0.57883-6.55 1.3327-11.5 1.6753-4.95 0.34256-9.7875 0.98142-10.75 1.4197-0.98923 0.45043-1.75 0.38906-1.75-0.14117zm-56.5-4.276c0.33992-0.55 1.743-1 3.118-1 1.412 0 2.231 0.43519 1.882 1-0.33992 0.55-1.743 1-3.118 1-1.412 0-2.231-0.43519-1.882-1zm22.5-4c0-0.55 1.1516-1 2.559-1 1.4514 0 2.2915 0.43284 1.941 1-0.33992 0.55-1.4915 1-2.559 1s-1.941-0.45-1.941-1zm-295.48 94.955c0.91203-1.4757-1.5642-15.326-2.5574-14.304-2.1765 2.2386-2.3093 15.344-0.15544 15.344 1.1386 0 2.3594-0.46792 2.7128-1.0398zm83.541-17.995c1.0638-0.56935 1.9343-1.4272 1.9343-1.9064 0-1.3589-3.7971-0.0297-4.3994 1.5401-0.64148 1.6717-0.11902 1.7493 2.4652 0.36628zm15.434-9.4262c0.55-0.6678 1.675-1.5172 2.5-1.8875 0.86873-0.38995 0.55351-0.49774-0.749-0.25611-3.0444 0.56477-3.844-1.0514-1.0155-2.0526 1.2455-0.44084 2.7145-0.87133 3.2645-0.95665 2.7292-0.42339 2.8075-0.65308 0.5-1.4669-2.2709-0.80094-2.2251-0.83474 0.5-0.36885 1.65 0.28208 3.675 0.61122 4.5 0.73142 1.0197 0.14855 1.4894-0.63594 1.4669-2.4498-0.0261-2.1016 0.53245-2.7815 2.6295-3.2009 1.4644-0.29288 3.3493-1.2192 4.1886-2.0585 0.83931-0.83931 2.9186-1.6321 4.6205-1.7618 2.2386-0.17057 3.0945-0.73884 3.0945-2.0545 0-1.0003 0.7875-2.1016 1.75-2.4474s2.5544-1.456 3.5375-2.4671c1.311-1.3483 3.0465-1.7836 6.5104-1.6328 3.3888 0.14745 5.5674-0.37745 7.7125-1.8582 5.5456-3.8281 8.9855-5.7964 9.7396-5.5728 0.4125 0.12231 0.75-0.22762 0.75-0.77762s0.79175-1 1.7594-1c0.9677 0 2.3215-0.9 3.0085-2 0.81086-1.2984 2.332-2 4.3362-2 1.698 0 4.2817-0.60008 5.7415-1.3335 8.2476-4.1436 13.999-6.6483 16.654-7.2524 1.65-0.37547 3.675-1.2592 4.5-1.9638 0.825-0.70459 3.1715-1.5912 5.2144-1.9703 2.0429-0.37907 4.2355-1.3171 4.8724-2.0846 0.63694-0.76747 2.2792-1.3954 3.6495-1.3954s4.1277-0.86069 6.1276-1.9126c6.6728-3.5099 21.45-9.4732 26.396-10.651 1.5177-0.36161 2.9907-1.0316 3.2733-1.4889 0.28262-0.45729 2.6409-1.1355 5.2406-1.507 2.5997-0.37158 6.1298-1.5226 7.8447-2.5578s3.8325-1.8822 4.7056-1.8822c0.87318 0 7.3451-1.8441 14.382-4.0979 39.604-12.685 36.365-10.996 46.301-24.145l6.239-8.2569-0.65257-10c-0.87-13.42-2.29-14.84-14.09-14.074-10.792 0.7007-16.5 1.6192-16.5 2.655 0 2.5264-4.1534 2.9984-7.6062 0.86453-3.4625-2.1399-3.6367-2.149-9.7098-0.50345-3.4012 0.92157-8.209 2.0178-10.684 2.4361-2.475 0.41827-5.9402 1.5193-7.7003 2.4467-1.7602 0.92744-4.0362 1.6863-5.0577 1.6863-2.4369 0-19.862 6.937-28.742 11.442-3.85 1.9533-7.7324 3.5529-8.6276 3.5546-0.89515 0.0017-2.1637 0.64908-2.819 1.4386-0.65528 0.78956-4.1979 2.399-7.8724 3.5766-3.789 1.2142-7.9797 3.3858-9.681 5.0166-1.65 1.5815-5.025 4.0075-7.5 5.3911s-5.85 3.2642-7.5 4.1791c-2.7497 1.5247-16.214 10.159-22.71 14.564-1.4902 1.0105-3.1208 1.8372-3.6235 1.8372-0.50269 0-5.6705 3.7125-11.484 8.25-5.8136 4.5375-13.051 10.05-16.084 12.25-3.0324 2.2-6.9953 5.0789-8.8064 6.3975s-4.643 4.1103-6.293 6.2037-3.3645 3.827-3.81 3.8525c-1.5676 0.0896-16.69 12.336-16.69 13.516 0 1.3573 2.964 0.29632 5.1136-1.8305 1.3125-1.2986 3.8489-3.1101 5.6364-4.0257 1.7875-0.91554 3.25-2.2977 3.25-3.0715 0-0.77382 0.9-1.6926 2-2.0417 1.1-0.34913 2.0085-0.94195 2.0189-1.3174 0.0104-0.37543 2.3137-2.0326 5.1185-3.6826s7.3113-4.9125 10.014-7.25c2.7032-2.3375 5.2496-4.25 5.6587-4.25 0.40907 0 2.1262-1.2626 3.8158-2.8058s5.2774-4.2314 7.9729-5.9737 5.4514-3.6363 6.1244-4.2088c0.67293-0.57254 2.3604-1.4732 3.75-2.0015 1.3896-0.52831 2.5265-1.4217 2.5265-1.9853 0-0.56361 0.65182-1.0248 1.4485-1.0248 0.79666 0 2.6624-1.125 4.146-2.5s3.0818-2.5 3.5515-2.5c0.46969 0 1.754-0.9 2.854-2s2.7118-2 3.5817-2c0.86994 0 3.5038-1.575 5.853-3.5s4.7874-3.5 5.4183-3.5c0.63086 0 1.9865-0.8395 3.0126-1.8656s5.1886-3.511 9.25-5.5221c6.7579-3.3463 8.396-4.2096 12.884-6.7901 0.825-0.47432 2.9317-1.5215 4.6816-2.3272 1.7499-0.80561 3.4426-1.8869 3.7615-2.403 0.31891-0.51602 2.0372-1.2565 3.8184-1.6455 1.7812-0.38899 4.2643-1.5113 5.518-2.494 1.2537-0.98272 4.0638-2.0882 6.2448-2.4567 2.1809-0.36846 4.2192-1.0808 4.5296-1.5829 0.31034-0.50214 1.3426-0.91299 2.2938-0.91299 0.95124 0 3.4436-0.8739 5.5386-1.942s5.0841-2.222 6.6424-2.5643c1.5583-0.34226 3.3694-1.2684 4.0248-2.058 1.3513-1.6282 5.5227-1.9306 6.428-0.46598 0.32963 0.53336-0.88131 1.6748-2.691 2.5365s-5.3153 2.6553-7.7903 3.9857c-2.475 1.3305-6.2753 2.7356-8.4451 3.1225-2.1698 0.38694-4.9214 1.757-6.1147 3.0445s-2.6821 2.341-3.3085 2.341c-0.62642 0-2.8182 0.9-4.8705 2-2.0524 1.1-4.4706 2-5.3739 2s-2.2026 0.675-2.8872 1.5c-0.68469 0.825-1.7559 1.5-2.3804 1.5-0.62453 0-3.2488 1.125-5.8318 2.5-2.5829 1.375-5.3437 2.5-6.1351 2.5-0.79134 0-1.676 0.61818-1.966 1.3737-0.28994 0.75555-2.1381 1.6759-4.107 2.0453-1.9689 0.36937-3.5798 1.1242-3.5798 1.6773 0 0.55314-1.4625 1.6721-3.25 2.4865-1.7875 0.81446-4.6 2.3674-6.25 3.4511-1.65 1.0836-4.4729 2.6547-6.273 3.4912-1.8002 0.83653-4.1627 2.4106-5.25 3.4979s-2.7769 1.9769-3.7547 1.9769c-0.97777 0-2.5484 0.9-3.4902 2-0.94185 1.1-2.4443 2-3.3389 2-1.1085 0-1.4674 0.60818-1.127 1.9099 0.39988 1.5292-0.77289 2.5557-5.8834 5.1496-3.5106 1.7819-6.3828 3.6224-6.3828 4.0901 0 0.46771-0.71713 0.85039-1.5936 0.85039-0.87649 0-1.8224 0.87491-2.102 1.9443-0.34229 1.3089-1.5371 2.0442-3.6564 2.25-2.4941 0.24224-3.0916 0.72193-2.8768 2.3095 0.27016 1.9965-0.38154 2.511-7.5646 5.9724-1.8114 0.87288-3.5771 2.326-3.9236 3.2291-1.0265 2.675-4.6322 5.7876-6.3645 5.4941-0.88531-0.14998-3.3689 1.4313-5.5192 3.514-2.1502 2.0827-5.2572 4.7468-6.9044 5.9204-1.6472 1.1735-2.6761 2.4672-2.2865 2.875 1.3945 1.4596 5.5838 0.7028 7.9167-1.4301 4.698-4.2953 5.4429-4.782 10.203-6.6668 2.6556-1.0514 5.2396-2.6632 5.7423-3.5816 0.50268-0.91846 2.4924-2.1909 4.4216-2.8276s3.5077-1.5727 3.5077-2.0801c0-0.50735 0.64047-0.92245 1.4233-0.92245 0.78281 0 2.6953-1.03 4.25-2.2889s3.9517-2.8448 5.3267-3.5242c4.5709-2.2586 15.597-8.6434 20.582-11.918 2.7051-1.777 5.5579-3.2395 6.3396-3.25 0.78169-0.01045 2.1612-0.68866 3.0656-1.5071 0.90439-0.81847 3.0773-1.7747 4.8287-2.125 4.3987-0.87973 4.3515 2.05-0.0656 4.0796-1.7875 0.82132-4.15 2.0595-5.25 2.7516-1.1 0.69204-4.327 2.7266-7.1712 4.5212s-5.9942 3.5559-7 3.9138c-1.0058 0.35797-2.5038 1.2118-3.3288 1.8974-2.2413 1.8625-8.0781 4.9594-11.7 6.2076-1.7599 0.60656-5.1349 2.4996-7.5 4.2068-7.4962 5.411-14.56 9.93-20.52 13.129-3.1789 1.7059-6.7089 3.9577-7.8443 5.004s-2.5756 1.9024-3.2003 1.9024c-0.62472 0-1.4957 0.5625-1.9356 1.25-0.95459 1.4921-9.3764 8.5372-13.135 10.988-4.0973 2.6713-3.8526 7.8296 0.33498 7.0639 1.65-0.30171 3.45-1.095 4-1.7628zm109-63.539c0.33992-0.55 1.743-1 3.118-1 1.412 0 2.231 0.43519 1.882 1-0.33992 0.55-1.743 1-3.118 1-1.412 0-2.231-0.43519-1.882-1zm-19.357-2.8903c-1.6042-1.0165-0.58115-1.8369 3.8893-3.119 2.516-0.72159 2.9674-0.57371 2.9674 0.97216 0 2.6817-4.0242 3.9417-6.8568 2.1469zm16.089-8.3052c0.43679-1.3104 5.8355-3.0705 6.7163-2.1897 0.84025 0.84025-3.086 3.3852-5.2226 3.3852-1.0407 0-1.7129-0.53797-1.4937-1.1955zm8.2682-4.8045c0.33992-0.55 1.4915-1 2.559-1s1.941 0.45 1.941 1-1.1516 1-2.559 1c-1.4514 0-2.2915-0.43284-1.941-1zm11.897-4.4998c1.0435-0.78989 2.2884-1.1945 2.7663-0.8991 1.4427 0.89164-0.134 2.401-2.4726 2.3671-2.119-0.03076-2.1286-0.07902-0.29366-1.468zm6.8289-2.6788c0.55231-1.6569 5.1498-3.6308 14.52-6.2342 2.3354-0.64885 4.7879-1.7214 5.45-2.3835 0.66207-0.66208 2.6888-1.2038 4.5038-1.2038s3.3-0.43266 3.3-0.96146c0-1.0863 7.9075-3.4644 8.7426-2.6293 1.1408 1.1407-4.4635 4.5349-9.2018 5.5729-2.7275 0.59754-5.6525 1.71-6.5 2.4721-4.2432 3.8159-21.807 8.3449-20.815 5.3672zm38.774-0.73708c0.825-0.47015 3.075-1.188 5-1.5952 1.925-0.40722 3.7939-1.2024 4.1531-1.767 0.35921-0.56464 3.4793-1.4131 6.9336-1.8855s6.9854-1.4706 7.8469-2.2183c2.2177-1.9246 12.411-3.1524 11.836-1.4256-0.23611 0.70832-2.5819 1.6487-5.2129 2.0898-2.631 0.44108-5.4396 1.458-6.2413 2.2597-0.80178 0.80178-2.6631 1.4776-4.1364 1.5019-3.1936 0.05262-11.784 2.2282-12.797 3.2407-0.39331 0.39332-2.5526 0.70143-4.7984 0.68471-2.7742-0.02066-3.6024-0.30446-2.5833-0.88523zm10.75-14.774c-2.1214-0.55437-2.3345-2.3107-0.28042-2.3107 0.80827 0 3.0642-0.89562 5.0131-1.9903s5.4501-2.2928 7.7804-2.6626 5.4234-1.5461 6.8736-2.6141c1.9422-1.4302 3.4538-1.7622 5.7385-1.2604 6.8951 1.5144 3.3331 4.329-8.9953 7.1077-4.059 0.91486-8.5951 2.2835-10.08 3.0415-2.7877 1.4227-3.1036 1.4587-6.0497 0.68881zm-16.25-19.311c-0.91432-1.4794 0.35378-3 2.5019-3 1.0361 0 3.372-0.86527 5.191-1.9228 4.8001-2.7908 12.807-3.8322 12.807-1.6657 0 1.0231-1.1346 1.8655-3.0208 2.2427-1.6614 0.33229-3.263 0.99604-3.559 1.475-0.29601 0.47896-1.2992 0.87361-2.2292 0.877-0.93004 0.0034-2.9799 0.67839-4.5553 1.5-3.3104 1.7265-6.2482 1.9298-7.1357 0.49384zm-164.89 105.6c0.29754-0.77537 1.6334-1.6839 2.9686-2.019 2.698-0.67717 3.2078-2.3346 0.98087-3.1892-0.84568-0.32452-2.9369 0.93493-5.0333 3.0314-3.1327 3.1326-3.3253 3.5866-1.5218 3.5866 1.1356 0 2.3082-0.63439 2.6057-1.4098z"/>
</svg>
